<svg width="497" height="77" viewBox="0 0 497 77" fill="none" xmlns="http://www.w3.org/2000/svg">
<path d="M41.0552 4.76892L39.911 13.5161C39.6656 14.2526 39.4213 14.4156 38.6862 14.4156H26.3498L20.0585 59.1317C19.8141 60.0312 19.1605 60.4397 18.1802 60.4397H8.70339C7.80449 60.4397 7.23236 59.7857 7.39624 58.8057L13.6052 14.4156H1.677C0.941975 14.4156 0.288406 13.5161 0.451308 12.7816L1.677 4.03442C1.75845 3.29796 2.08622 3.21547 2.82124 3.21547H39.7481C40.4831 3.21547 41.1367 4.03442 41.0552 4.76892Z" fill="#1D3CAA"/>
<path d="M81.1684 37.0594L78.0634 59.2947C77.982 59.9487 77.4913 60.4397 76.6748 60.4397H66.9527C66.2991 60.4397 65.727 59.7857 65.8085 59.2142L68.6681 38.8583C69.6484 32.3186 66.4621 30.8476 63.522 30.8476C57.7213 30.8476 54.3719 36.6509 54.1266 38.5304L51.1855 59.2947C51.1041 59.9487 50.6134 60.4397 49.7969 60.4397H40.0748C39.3398 60.4397 38.8491 59.7857 38.9306 59.2142L47.0188 1.90752C47.1002 1.17302 47.5909 0.764526 48.3259 0.764526H57.9656C58.7016 0.764526 59.2728 1.58151 59.1913 2.39849L55.6791 26.4327C58.7831 22.1829 63.1127 19.4844 68.5866 19.4844C76.9192 19.4844 82.7199 26.4327 81.1684 37.0594Z" fill="#1D3CAA"/>
<path d="M126.18 40.4943C125.772 43.5187 125.445 44.8267 122.913 44.8267H98.1593C98.4851 49.4045 101.672 51.6925 106.982 51.6925C110.168 51.6925 112.455 50.958 115.07 49.0765C115.887 48.505 116.541 48.7505 117.113 49.4045L120.87 53.8174C121.36 54.3909 121.688 55.4533 120.87 56.1073C116.541 59.5402 111.067 61.5022 105.593 61.5022C92.6854 61.5022 85.1693 51.8555 86.8032 39.7578C88.4372 28.3122 98.0769 19.4845 109.433 19.4845C121.36 19.4845 127.814 29.0487 126.18 40.4943ZM99.3026 37.0594H115.806C115.887 32.0731 112.946 29.7851 108.942 29.7851C104.939 29.7851 101.099 32.2361 99.3026 37.0594Z" fill="#1D3CAA"/>
<path d="M184.101 4.76892L182.876 13.5161C182.712 14.2526 182.549 14.4156 181.814 14.4156H162.452L160.899 25.6157H178.464C179.199 25.6157 179.853 26.5152 179.771 27.2497L178.546 35.9969C178.383 36.7334 178.219 36.8139 177.484 36.8139H159.348L157.55 49.2395H176.422C177.157 49.2395 177.811 50.0585 177.729 50.793L176.504 59.5402C176.341 60.2767 176.095 60.4397 175.359 60.4397H144.805C143.906 60.4397 143.334 59.7857 143.498 58.8057L151.096 4.44291C151.26 3.54344 151.831 3.21547 152.567 3.21547H182.794C183.53 3.21547 184.184 4.03442 184.101 4.76892Z" fill="#1D3CAA"/>
<path d="M222.66 60.4397H211.549C210.895 60.4397 210.406 59.8682 210.16 59.2947L204.769 49.0765L196.354 59.8682C195.863 60.4397 195.619 60.4397 194.965 60.4397H183.854C182.874 60.4397 182.138 59.4577 182.71 58.6407L198.805 39.9208L189.002 21.6094C188.592 20.7924 188.592 20.3839 189.573 20.3839H200.683C201.337 20.3839 201.828 20.9554 202.073 21.5269L206.974 30.6826L214.491 20.9554C214.981 20.3839 215.307 20.3839 215.961 20.3839H227.072C228.052 20.3839 228.706 21.3639 228.133 22.1828L212.938 39.9208L223.232 59.2142C223.641 60.0312 223.641 60.4397 222.66 60.4397Z" fill="#1D3CAA"/>
<path d="M253.704 47.1146C254.358 46.5431 255.093 46.6236 255.583 47.1971L260.812 53.0004C261.384 53.6544 261.547 54.4714 260.812 55.2078C256.564 59.0492 250.763 61.5022 244.636 61.5022C234.016 61.5022 226.5 53.5739 226.5 43.0277C226.5 30.0306 237.202 19.4845 249.456 19.4845C255.91 19.4845 261.057 22.5089 264.161 27.1692C264.407 27.5777 264.733 28.2317 264.08 28.8857L257.707 34.1175C257.136 34.689 256.156 34.6065 255.502 33.872C253.623 31.7471 251.662 30.8476 249.048 30.8476C243.003 30.8476 238.182 35.9969 238.182 42.2913C238.182 47.0341 241.286 50.139 245.861 50.139C249.048 50.139 251.417 49.2395 253.704 47.1146Z" fill="#1D3CAA"/>
<path d="M308.44 37.0594L305.335 59.2947C305.254 59.9487 304.763 60.4397 303.947 60.4397H294.225C293.571 60.4397 292.999 59.7857 293.08 59.2142L295.94 38.8583C296.92 32.3186 293.734 30.8476 290.794 30.8476C284.993 30.8476 281.644 36.6509 281.399 38.5304L278.458 59.2947C278.376 59.9487 277.885 60.4397 277.069 60.4397H267.347C266.612 60.4397 266.121 59.7857 266.203 59.2142L274.291 1.90752C274.372 1.17302 274.863 0.764526 275.598 0.764526H285.238C285.974 0.764526 286.545 1.58151 286.463 2.39849L282.951 26.4327C286.055 22.1829 290.385 19.4844 295.859 19.4844C304.191 19.4844 309.992 26.4327 308.44 37.0594Z" fill="#1D3CAA"/>
<path d="M358.601 21.9374L353.29 59.5402C353.207 60.2767 352.963 60.4397 352.228 60.4397H343.404C342.669 60.4397 342.097 59.6227 342.179 58.8862L342.261 56.5158C338.829 59.5402 334.826 61.5022 330.578 61.5022C320.284 61.5022 313.503 53.6544 313.503 43.2732C313.503 30.7651 323.143 19.4845 335.398 19.4845C340.381 19.4845 344.057 21.9374 346.59 25.3703L347.325 21.4464C347.489 20.7099 347.979 20.3839 348.715 20.3839H357.294C358.028 20.3839 358.681 21.2009 358.601 21.9374ZM343.732 38.5304C343.732 34.1175 340.708 30.6021 335.889 30.6021C330.415 30.6021 325.268 35.7515 325.268 42.4543C325.268 47.0341 328.29 50.302 333.029 50.302C338.747 50.302 343.732 44.7442 343.732 38.5304Z" fill="#1D3CAA"/>
<path d="M404.104 37.0594L400.999 59.2947C400.918 59.9487 400.427 60.4397 399.611 60.4397H389.89C389.154 60.4397 388.663 59.7857 388.746 59.2142L391.605 38.8584C392.585 32.3186 389.399 30.8476 386.377 30.8476C380.657 30.8476 377.307 36.6509 376.981 38.5304L374.122 59.2947C374.039 59.9487 373.549 60.4397 372.732 60.4397H363.011C362.275 60.4397 361.704 59.7857 361.784 59.2142L367.178 21.5269C367.258 20.7924 367.749 20.3839 368.485 20.3839H377.715C378.451 20.3839 379.023 21.2009 379.023 21.9374L378.614 26.4327C381.719 22.1829 386.049 19.4845 391.523 19.4845C399.856 19.4845 405.656 26.4327 404.104 37.0594Z" fill="#1D3CAA"/>
<path d="M453.525 21.9374L448.132 60.5222C446.334 73.3563 433.999 76.6262 425.094 76.6262C417.822 76.6262 411.614 74.0908 407.938 70.9858C407.448 70.5773 407.039 69.7584 407.448 69.1869L410.961 64.2811C411.451 63.6271 411.614 63.4641 412.676 64.0376C416.352 65.917 420.028 66.6535 424.523 66.6535C429.015 66.6535 436.287 64.772 437.104 58.7232L437.512 55.6988C434.162 58.7232 429.997 60.6852 425.665 60.6852C415.29 60.6852 408.509 52.8374 408.509 42.6192C408.509 30.4391 418.395 19.4845 430.323 19.4845C435.306 19.4845 439.064 21.8549 441.596 25.2878L442.332 21.2009C442.495 20.4644 442.658 20.3839 443.394 20.3839H452.299C453.035 20.3839 453.688 21.2009 453.525 21.9374ZM438.491 38.7759C438.491 34.035 434.815 30.6021 430.323 30.6021C424.44 30.6021 420.356 35.9969 420.356 41.3113C420.356 46.2151 423.95 49.485 428.444 49.485C434.326 49.485 438.491 43.9272 438.491 38.7759Z" fill="#1D3CAA"/>
<path d="M495.925 40.4943C495.515 43.5187 495.189 44.8267 492.657 44.8267H467.902C468.23 49.4045 471.415 51.6925 476.726 51.6925C479.912 51.6925 482.2 50.958 484.815 49.0765C485.631 48.505 486.285 48.7505 486.856 49.4045L490.614 53.8174C491.105 54.3909 491.431 55.4533 490.614 56.1073C486.285 59.5402 480.811 61.5022 475.337 61.5022C462.428 61.5022 454.913 51.8555 456.546 39.7578C458.181 28.3122 467.822 19.4845 479.178 19.4845C491.105 19.4845 497.558 29.0487 495.925 40.4943ZM469.046 37.0594H485.549C485.631 32.0731 482.689 29.7851 478.687 29.7851C474.683 29.7851 470.844 32.2361 469.046 37.0594Z" fill="#1D3CAA"/>
</svg>
