<svg width="489" height="75" viewBox="0 0 489 75" fill="none" xmlns="http://www.w3.org/2000/svg">
<path d="M40.9737 4.18731L39.8475 12.7923C39.606 13.5168 39.3655 13.6771 38.6421 13.6771H26.4999L20.3076 57.6662C20.0671 58.551 19.4239 58.9528 18.4589 58.9528H9.13139C8.24664 58.9528 7.68353 58.3095 7.84483 57.3454L13.956 13.6771H2.21565C1.4922 13.6771 0.848924 12.7923 1.00926 12.0697L2.21565 3.46475C2.29582 2.74026 2.61843 2.65912 3.34187 2.65912H39.6872C40.4106 2.65912 41.0539 3.46475 40.9737 4.18731Z" fill="white"/>
<path d="M80.4552 35.9527L77.3992 57.8265C77.319 58.4699 76.8361 58.9528 76.0325 58.9528H66.4634C65.8202 58.9528 65.257 58.3095 65.3372 57.7473L68.1518 37.7224C69.1167 31.289 65.9805 29.8419 63.0867 29.8419C57.3774 29.8419 54.0808 35.5509 53.8393 37.3998L50.9446 57.8265C50.8644 58.4699 50.3814 58.9528 49.5778 58.9528H40.0088C39.2854 58.9528 38.8024 58.3095 38.8826 57.7473L46.8434 1.37242C46.9236 0.649865 47.4065 0.248016 48.13 0.248016H57.6179C58.3423 0.248016 58.9044 1.05171 58.8243 1.85541L55.3673 25.4989C58.4224 21.3181 62.6839 18.6635 68.0716 18.6635C76.273 18.6635 81.9823 25.4989 80.4552 35.9527Z" fill="white"/>
<path d="M124.758 39.3318C124.357 42.307 124.035 43.5937 121.542 43.5937H97.1785C97.4992 48.0971 100.635 50.3478 105.862 50.3478C108.998 50.3478 111.25 49.6253 113.823 47.7745C114.627 47.2123 115.271 47.4538 115.834 48.0971L119.532 52.4382C120.014 53.0024 120.337 54.0476 119.532 54.6909C115.27 58.068 109.883 59.998 104.495 59.998C91.7908 59.998 84.3931 50.5082 86.0013 38.6073C87.6095 27.3477 97.0974 18.6635 108.275 18.6635C120.014 18.6635 126.367 28.0722 124.758 39.3318ZM98.3038 35.9527H114.547C114.627 31.0475 111.732 28.7967 107.792 28.7967C103.852 28.7967 100.072 31.2078 98.3038 35.9527Z" fill="white"/>
<path d="M181.767 4.18731L180.561 12.7923C180.4 13.5168 180.239 13.6771 179.515 13.6771H160.459L158.93 24.6952H176.219C176.942 24.6952 177.586 25.58 177.505 26.3026L176.299 34.9076C176.139 35.632 175.977 35.7113 175.254 35.7113H157.403L155.634 47.9348H174.209C174.932 47.9348 175.576 48.7405 175.495 49.463L174.289 58.068C174.129 58.7925 173.887 58.9528 173.163 58.9528H143.09C142.205 58.9528 141.642 58.3095 141.803 57.3454L149.281 3.8666C149.443 2.98176 150.005 2.65912 150.729 2.65912H180.48C181.205 2.65912 181.848 3.46475 181.767 4.18731Z" fill="white"/>
<path d="M219.718 58.9529H208.782C208.139 58.9529 207.657 58.3907 207.416 57.8265L202.109 47.7745L193.827 58.3907C193.344 58.9529 193.103 58.9529 192.46 58.9529H181.524C180.559 58.9529 179.835 57.9869 180.398 57.1832L196.239 38.7676L186.59 20.754C186.188 19.9503 186.188 19.5484 187.152 19.5484H198.088C198.731 19.5484 199.214 20.1106 199.456 20.6728L204.28 29.6796L211.678 20.1106C212.16 19.5484 212.482 19.5484 213.125 19.5484H224.061C225.026 19.5484 225.669 20.5125 225.106 21.3181L210.15 38.7676L220.281 57.7473C220.684 58.551 220.684 58.9529 219.718 58.9529Z" fill="white"/>
<path d="M250.274 45.8444C250.917 45.2822 251.641 45.3614 252.124 45.9256L257.27 51.6345C257.833 52.2779 257.993 53.0816 257.27 53.8061C253.089 57.585 247.379 59.998 241.348 59.998C230.895 59.998 223.498 52.1987 223.498 41.824C223.498 29.0382 234.032 18.6635 246.093 18.6635C252.445 18.6635 257.511 21.6388 260.566 26.2233C260.808 26.6252 261.13 27.2685 260.486 27.9119L254.214 33.0586C253.652 33.6209 252.687 33.5397 252.043 32.8172C250.194 30.7268 248.264 29.8419 245.691 29.8419C239.741 29.8419 234.997 34.9075 234.997 41.0995C234.997 45.7652 238.052 48.8197 242.555 48.8197C245.691 48.8197 248.022 47.9348 250.274 45.8444Z" fill="white"/>
<path d="M304.148 35.9527L301.092 57.8265C301.012 58.4699 300.529 58.9528 299.725 58.9528H290.156C289.513 58.9528 288.95 58.3095 289.03 57.7473L291.845 37.7224C292.81 31.289 289.673 29.8419 286.78 29.8419C281.07 29.8419 277.774 35.5509 277.532 37.3998L274.637 57.8265C274.557 58.4699 274.074 58.9528 273.271 58.9528H263.702C262.978 58.9528 262.495 58.3095 262.575 57.7473L270.536 1.37242C270.616 0.649865 271.099 0.248016 271.823 0.248016H281.311C282.035 0.248016 282.597 1.05171 282.517 1.85541L279.06 25.4989C282.115 21.3181 286.377 18.6635 291.764 18.6635C299.966 18.6635 305.675 25.4989 304.148 35.9527Z" fill="white"/>
<path d="M353.519 21.0766L348.291 58.068C348.21 58.7925 347.97 58.9528 347.246 58.9528H338.561C337.837 58.9528 337.274 58.1491 337.355 57.4247L337.436 55.0928C334.058 58.068 330.118 59.998 325.937 59.998C315.806 59.998 309.131 52.2779 309.131 42.0655C309.131 29.7608 318.619 18.6635 330.681 18.6635C335.586 18.6635 339.204 21.0766 341.697 24.4537L342.421 20.5936C342.582 19.8691 343.064 19.5484 343.788 19.5484H352.232C352.955 19.5484 353.598 20.3521 353.519 21.0766ZM338.883 37.3998C338.883 33.0586 335.908 29.6004 331.164 29.6004C325.776 29.6004 320.71 34.666 320.71 41.2599C320.71 45.7652 323.685 48.98 328.35 48.98C333.978 48.98 338.883 43.5125 338.883 37.3998Z" fill="white"/>
<path d="M398.305 35.9527L395.249 57.8265C395.17 58.4698 394.687 58.9528 393.883 58.9528H384.315C383.591 58.9528 383.108 58.3095 383.189 57.7473L386.003 37.7224C386.967 31.289 383.832 29.8419 380.857 29.8419C375.228 29.8419 371.93 35.5509 371.61 37.3998L368.795 57.8265C368.714 58.4698 368.231 58.9528 367.427 58.9528H357.859C357.135 58.9528 356.573 58.3095 356.652 57.7473L361.961 20.6728C362.04 19.9502 362.523 19.5484 363.247 19.5484H372.332C373.057 19.5484 373.619 20.3521 373.619 21.0766L373.217 25.4989C376.273 21.3181 380.534 18.6635 385.922 18.6635C394.124 18.6635 399.833 25.4989 398.305 35.9527Z" fill="white"/>
<path d="M446.948 21.0766L441.64 59.034C439.87 71.6594 427.729 74.8761 418.965 74.8761C411.808 74.8761 405.697 72.382 402.079 69.3275C401.596 68.9257 401.194 68.12 401.596 67.5578L405.054 62.7318C405.537 62.0884 405.697 61.9281 406.742 62.4922C410.361 64.3411 413.979 65.0656 418.403 65.0656C422.824 65.0656 429.982 63.2148 430.785 57.2643L431.187 54.2891C427.89 57.2643 423.79 59.1943 419.527 59.1943C409.316 59.1943 402.641 51.4742 402.641 41.4221C402.641 29.4401 412.372 18.6635 424.111 18.6635C429.016 18.6635 432.715 20.9954 435.207 24.3725L435.931 20.3521C436.092 19.6276 436.252 19.5484 436.977 19.5484H445.741C446.465 19.5484 447.109 20.3521 446.948 21.0766ZM432.151 37.6413C432.151 32.9775 428.533 29.6004 424.111 29.6004C418.321 29.6004 414.301 34.9075 414.301 40.1355C414.301 44.9596 417.839 48.1763 422.262 48.1763C428.052 48.1763 432.151 42.7088 432.151 37.6413Z" fill="white"/>
<path d="M488.681 39.3318C488.277 42.307 487.956 43.5937 485.464 43.5937H461.099C461.421 48.0971 464.557 50.3478 469.784 50.3478C472.919 50.3478 475.172 49.6253 477.745 47.7745C478.548 47.2123 479.192 47.4538 479.754 48.0971L483.453 52.4382C483.936 53.0024 484.257 54.0476 483.453 54.6909C479.192 58.068 473.804 59.998 468.416 59.998C455.711 59.998 448.314 50.5082 449.921 38.6073C451.531 27.3477 461.019 18.6635 472.197 18.6635C483.936 18.6635 490.288 28.0722 488.681 39.3318ZM462.225 35.9527H478.467C478.548 31.0475 475.653 28.7967 471.714 28.7967C467.773 28.7967 463.994 31.2078 462.225 35.9527Z" fill="white"/>
</svg>
