<svg width="141" height="146" viewBox="0 0 141 146" fill="none" xmlns="http://www.w3.org/2000/svg">
<mask id="mask0_1734_1487" style="mask-type:alpha" maskUnits="userSpaceOnUse" x="0" y="0" width="141" height="202">
<path fill-rule="evenodd" clip-rule="evenodd" d="M60.7945 70.7745L57.5286 52.2148L57.5621 52.1479L48.4847 0.418388C48.4512 0.167355 48.2335 0 47.9655 0H42.1539C41.7017 0 41.283 0.468595 41.35 0.886983L51.7506 60.1642L51.7171 60.2312L55.2174 80.0962L56.842 89.4347L58.8015 100.999C58.8297 101.14 58.9054 101.254 59.0137 101.328C59.0015 101.378 58.9951 101.43 58.9954 101.481L40.9313 130.721L35.2035 139.993L23.4296 159.004C23.4296 159.021 0.116375 196.425 0.116375 196.425C-0.151593 196.843 0.0661312 197.312 0.535076 197.312L6.34665 197.395C6.61461 197.395 6.89933 197.228 7.05006 196.994L25.2719 167.841C25.2719 167.824 36.6941 149.365 36.6941 149.365L42.4219 140.093L60.5678 110.706L62.5028 122.002L62.5641 122.355L55.7198 133.549L50.0255 142.854L38.3354 161.916C38.3354 161.933 15.1058 199.404 15.1058 199.404C14.8379 199.822 15.0556 200.291 15.5245 200.291L21.3361 200.341C21.6041 200.341 21.8888 200.173 22.0395 199.922L40.2112 170.736C40.2112 170.719 51.5496 152.209 51.5496 152.209L57.2439 142.921L64.1707 131.587L67.3932 149.9L67.3597 149.967L75.449 198.065C75.4993 198.316 75.7002 198.483 75.9682 198.483H81.7798C82.232 198.483 82.6507 198.015 82.5837 197.596H82.5669L73.1713 141.934L73.2048 141.867L69.777 122.413L76.1677 111.956L78.3464 124.747L79.9542 134.085L83.2033 152.645L83.1698 152.712L91.2089 200.826C91.2591 201.077 91.4601 201.245 91.7281 201.245H97.5397C97.9919 201.245 98.4106 200.793 98.3436 200.358H98.3101L88.9647 144.679L88.9982 144.612L85.5313 124.747L83.9235 115.408L81.9807 103.827C81.9516 103.682 81.872 103.565 81.7582 103.492C81.7719 103.42 81.7742 103.347 81.763 103.275L81.6722 102.741L99.2312 74.0212L104.926 64.7162L116.616 45.6545C116.616 45.6377 140.884 5.25491 140.884 5.25491C141.152 4.83652 140.934 4.36793 140.465 4.36793L134.653 4.31772C134.385 4.31772 134.101 4.48508 133.95 4.73611L114.74 36.8349C114.74 36.8516 103.401 55.3611 103.401 55.3611L97.7072 64.6493L80.0931 93.4711L78.2794 82.8241L78.1449 82.0424L84.7107 71.4105L90.4385 62.1391L102.212 43.1275C102.212 43.1108 126.581 2.77816 126.581 2.77816C126.849 2.35977 126.631 1.89117 126.162 1.89117L120.351 1.8075C120.083 1.8075 119.798 1.97485 119.647 2.20915L100.387 34.2744C100.387 34.2911 88.9647 52.7504 88.9647 52.7504L83.2369 62.0219L76.5582 72.838L73.4225 54.9259L73.456 54.859L64.4623 3.12949C64.4121 2.87846 64.2111 2.7111 63.9431 2.7111H58.1315C57.6794 2.7111 57.2607 3.16296 57.3276 3.59809L67.6612 62.892L67.6277 62.959L70.9398 81.9372L64.5164 92.3398L62.4191 80.0962L60.7945 70.7745ZM74.4664 102.678L72.7023 92.1625L72.5263 91.1402L66.471 100.945C66.4744 101.069 66.438 101.204 66.3549 101.334L66.202 101.581L68.0799 112.663L68.1705 113.185L73.8426 103.907C73.8371 103.78 73.8732 103.642 73.9584 103.509L74.4664 102.678Z" fill="#F6F9FB"/>
</mask>
<g mask="url(#mask0_1734_1487)">
<rect x="5" y="61.7554" width="111" height="85" fill="#1C3DAA"/>
</g>
</svg>
