<svg width="619" height="119" viewBox="0 0 619 119" fill="none" xmlns="http://www.w3.org/2000/svg">
<g clip-path="url(#clip0_98_19900)">
<path d="M59.3924 109.815H52.0066C51.661 109.815 51.3964 109.603 51.3412 109.283L48.8791 94.985L46.8359 83.1081L44.8025 71.3159L51.9299 59.4385L53.9613 71.2404L56.0065 83.1081L60.4126 108.689C60.5061 109.232 59.9778 109.815 59.3924 109.815Z" fill="#3D5EFC"/>
<path d="M49.8846 47.5712L42.7593 59.4385L34.2687 10.1223C34.1753 9.57946 34.7036 8.99655 35.289 8.99655H42.6686C43.0143 8.99655 43.2789 9.20812 43.334 9.5286L49.8846 47.5712Z" fill="#3D5EFC"/>
<path d="M59.0088 47.6423L51.9307 59.4344L44.8033 71.3118L21.9035 109.467C21.7111 109.788 21.3559 109.999 21.0103 109.999H13.6244C13.039 109.999 12.7603 109.416 13.0861 108.874L42.7601 59.4344L49.8855 47.5667L56.9667 35.7746L59.0088 47.6423Z" fill="#FF3C00"/>
<path d="M81.4242 10.3014L66.1333 35.7791L64.088 23.9114L72.6129 9.70784C72.8053 9.38733 73.1605 9.17575 73.5061 9.17575H80.8858C81.4712 9.17575 81.75 9.75863 81.4242 10.3014Z" fill="#FF3C00"/>
<path d="M68.1666 47.5712L61.0392 59.4482L59.0079 47.6463L56.9657 35.7791L52.5477 10.1223C52.4542 9.57948 52.9825 8.99655 53.5679 8.99655H60.9475C61.2931 8.99655 61.5577 9.20815 61.6129 9.52867L64.088 23.9113L66.1332 35.7791L68.1666 47.5712Z" fill="#4399FF"/>
<path d="M77.6712 109.815H70.2855C69.9398 109.815 69.6752 109.603 69.6201 109.283L63.0845 71.3159L70.2098 59.4482L78.6915 108.689C78.785 109.232 78.2567 109.815 77.6712 109.815Z" fill="#4399FF"/>
<path d="M46.8358 83.1081L48.8791 94.985L40.1847 109.471C39.9923 109.792 39.6371 110.003 39.2915 110.003H31.9057C31.3203 110.003 31.0415 109.421 31.3673 108.878L46.8358 83.1081Z" fill="#FF8110"/>
<path d="M99.1687 9.17169C99.7541 9.17169 100.033 9.75457 99.7071 10.2974L70.2107 59.4441L63.0853 71.3118L56.0073 83.104L53.962 71.2363L61.0401 59.4441L68.1676 47.5667L90.8958 9.70373C91.0882 9.38325 91.4434 9.17169 91.789 9.17169H99.1687Z" fill="#FF8110"/>
<path d="M162.4 34.6057L161.284 43.0684C161.045 43.781 160.807 43.9387 160.09 43.9387H148.065L141.932 87.2006C141.694 88.0708 141.057 88.466 140.101 88.466H130.863C129.987 88.466 129.429 87.8333 129.589 86.8852L135.641 43.9387H124.014C123.297 43.9387 122.66 43.0684 122.819 42.3578L124.014 33.8951C124.093 33.1826 124.413 33.1028 125.129 33.1028H161.125C161.842 33.1028 162.479 33.8951 162.4 34.6057Z" fill="#1D3CAA"/>
<path d="M201.502 65.8461L198.475 87.3583C198.396 87.991 197.918 88.466 197.122 88.466H187.645C187.008 88.466 186.45 87.8333 186.529 87.2804L189.317 67.5865C190.272 61.2594 187.166 59.8363 184.3 59.8363C178.646 59.8363 175.381 65.4509 175.142 67.2692L172.275 87.3583C172.195 87.991 171.717 88.466 170.921 88.466H161.444C160.727 88.466 160.249 87.8333 160.329 87.2804L168.213 31.8373C168.292 31.1267 168.771 30.7315 169.487 30.7315H178.884C179.601 30.7315 180.158 31.5219 180.079 32.3123L176.655 55.565C179.681 51.4533 183.901 48.8427 189.237 48.8427C197.36 48.8427 203.015 55.565 201.502 65.8461Z" fill="#1D3CAA"/>
<path d="M245.38 69.1692C244.982 72.0953 244.664 73.3607 242.195 73.3607H218.065C218.383 77.7897 221.489 80.0032 226.665 80.0032C229.771 80.0032 232.001 79.2926 234.549 77.4724C235.346 76.9195 235.983 77.157 236.541 77.7897L240.204 82.0591C240.681 82.6139 241.001 83.6418 240.204 84.2745C235.983 87.5958 230.647 89.4939 225.311 89.4939C212.729 89.4939 205.402 80.1609 206.995 68.4567C208.588 57.3833 217.985 48.8427 229.055 48.8427C240.681 48.8427 246.973 58.0958 245.38 69.1692ZM219.179 65.8461H235.267C235.346 61.0219 232.479 58.8083 228.576 58.8083C224.674 58.8083 220.931 61.1796 219.179 65.8461Z" fill="#1D3CAA"/>
<path d="M301.841 34.6057L300.647 43.0684C300.488 43.781 300.328 43.9387 299.611 43.9387H280.737L279.224 54.7746H296.346C297.063 54.7746 297.7 55.6448 297.621 56.3554L296.426 64.8182C296.267 65.5307 296.107 65.6086 295.391 65.6086H277.712L275.959 77.6301H294.356C295.072 77.6301 295.709 78.4224 295.63 79.133L294.435 87.5958C294.276 88.3083 294.037 88.466 293.32 88.466H263.536C262.659 88.466 262.102 87.8333 262.261 86.8852L269.667 34.2903C269.827 33.4201 270.384 33.1028 271.101 33.1028H300.567C301.284 33.1028 301.922 33.8951 301.841 34.6057Z" fill="#1D3CAA"/>
<path d="M339.428 88.466H328.597C327.96 88.466 327.483 87.9131 327.244 87.3583L321.988 77.4724L313.785 87.9131C313.307 88.466 313.069 88.466 312.432 88.466H301.601C300.645 88.466 299.928 87.516 300.485 86.7256L316.175 68.6144L306.618 50.8985C306.219 50.1081 306.219 49.7129 307.175 49.7129H318.006C318.643 49.7129 319.121 50.2658 319.36 50.8187L324.138 59.6767L331.465 50.2658C331.943 49.7129 332.261 49.7129 332.898 49.7129H343.729C344.685 49.7129 345.322 50.661 344.764 51.4533L329.952 68.6144L339.986 87.2804C340.385 88.0708 340.385 88.466 339.428 88.466Z" fill="#1D3CAA"/>
<path d="M369.691 75.5743C370.328 75.0213 371.044 75.0992 371.523 75.6541L376.619 81.2687C377.177 81.9014 377.336 82.6918 376.619 83.4043C372.478 87.1208 366.824 89.4939 360.851 89.4939C350.498 89.4939 343.171 81.8235 343.171 71.6203C343.171 59.0458 353.604 48.8427 365.549 48.8427C371.841 48.8427 376.859 51.7687 379.884 56.2775C380.123 56.6727 380.442 57.3054 379.805 57.9381L373.593 62.9998C373.036 63.5527 372.08 63.4729 371.443 62.7623C369.611 60.7065 367.7 59.8363 365.151 59.8363C359.259 59.8363 354.56 64.8182 354.56 70.9078C354.56 75.4964 357.586 78.5003 362.045 78.5003C365.151 78.5003 367.461 77.6301 369.691 75.5743Z" fill="#1D3CAA"/>
<path d="M423.048 65.8461L420.021 87.3583C419.942 87.991 419.463 88.466 418.667 88.466H409.19C408.553 88.466 407.995 87.8333 408.075 87.2804L410.862 67.5865C411.818 61.2594 408.712 59.8363 405.846 59.8363C400.191 59.8363 396.926 65.4509 396.687 67.2692L393.82 87.3583C393.741 87.991 393.263 88.466 392.467 88.466H382.989C382.273 88.466 381.795 87.8333 381.874 87.2804L389.758 31.8373C389.838 31.1267 390.316 30.7315 391.033 30.7315H400.43C401.147 30.7315 401.704 31.5219 401.624 32.3123L398.201 55.565C401.226 51.4533 405.447 48.8427 410.783 48.8427C418.905 48.8427 424.56 55.565 423.048 65.8461Z" fill="#1D3CAA"/>
<path d="M471.944 51.2158L466.767 87.5958C466.687 88.3083 466.448 88.466 465.732 88.466H457.13C456.414 88.466 455.856 87.6756 455.936 86.9631L456.016 84.6697C452.67 87.5958 448.768 89.4939 444.627 89.4939C434.593 89.4939 427.983 81.9014 427.983 71.8578C427.983 59.7565 437.38 48.8427 449.326 48.8427C454.184 48.8427 457.767 51.2158 460.236 54.5371L460.953 50.7408C461.112 50.0283 461.59 49.7129 462.307 49.7129H470.67C471.386 49.7129 472.023 50.5033 471.944 51.2158ZM457.45 67.2692C457.45 62.9998 454.502 59.5988 449.804 59.5988C444.468 59.5988 439.451 64.5807 439.451 71.0655C439.451 75.4964 442.397 78.658 447.017 78.658C452.591 78.658 457.45 73.2809 457.45 67.2692Z" fill="#1D3CAA"/>
<path d="M516.3 65.8461L513.274 87.3583C513.195 87.991 512.717 88.466 511.921 88.466H502.445C501.727 88.466 501.249 87.8333 501.329 87.2804L504.117 67.5865C505.072 61.2594 501.967 59.8363 499.02 59.8363C493.445 59.8363 490.179 65.4509 489.862 67.2692L487.074 87.3583C486.994 87.991 486.515 88.466 485.719 88.466H476.243C475.526 88.466 474.969 87.8333 475.047 87.2804L480.305 50.8187C480.383 50.1081 480.862 49.7129 481.579 49.7129H490.577C491.295 49.7129 491.851 50.5033 491.851 51.2158L491.453 55.565C494.48 51.4533 498.701 48.8427 504.037 48.8427C512.16 48.8427 517.814 55.565 516.3 65.8461Z" fill="#1D3CAA"/>
<path d="M564.477 51.2158L559.219 88.5458C557.467 100.963 545.442 104.126 536.762 104.126C529.674 104.126 523.622 101.673 520.039 98.6692C519.56 98.274 519.162 97.4817 519.56 96.9288L522.985 92.1825C523.463 91.5498 523.622 91.3921 524.657 91.9469C528.241 93.7652 531.824 94.4777 536.205 94.4777C540.585 94.4777 547.673 92.6575 548.469 86.8054L548.867 83.8793C545.601 86.8054 541.541 88.7035 537.319 88.7035C527.205 88.7035 520.595 81.111 520.595 71.2251C520.595 59.4411 530.232 48.8427 541.859 48.8427C546.717 48.8427 550.38 51.136 552.848 54.4573L553.566 50.5033C553.725 49.7908 553.883 49.7129 554.601 49.7129H563.281C563.999 49.7129 564.636 50.5033 564.477 51.2158ZM549.822 67.5067C549.822 62.92 546.238 59.5988 541.859 59.5988C536.125 59.5988 532.144 64.8182 532.144 69.9597C532.144 74.704 535.647 77.8676 540.028 77.8676C545.762 77.8676 549.822 72.4905 549.822 67.5067Z" fill="#1D3CAA"/>
<path d="M605.808 69.1692C605.408 72.0953 605.091 73.3607 602.623 73.3607H578.491C578.811 77.7897 581.916 80.0032 587.093 80.0032C590.198 80.0032 592.429 79.2926 594.978 77.4724C595.773 76.9195 596.411 77.157 596.967 77.7897L600.631 82.0591C601.109 82.6139 601.427 83.6418 600.631 84.2745C596.41 87.5958 591.075 89.4939 585.739 89.4939C573.155 89.4939 565.83 80.1609 567.421 68.4567C569.015 57.3833 578.413 48.8427 589.483 48.8427C601.109 48.8427 607.4 58.0958 605.808 69.1692ZM579.607 65.8461H595.693C595.773 61.0219 592.905 58.8083 589.004 58.8083C585.101 58.8083 581.359 61.1796 579.607 65.8461Z" fill="#1D3CAA"/>
</g>
<defs>
<clipPath id="clip0_98_19900">
<rect width="619" height="119" fill="white"/>
</clipPath>
</defs>
</svg>
