<svg width="42" height="48" viewBox="0 0 42 48" fill="none" xmlns="http://www.w3.org/2000/svg">
<path fill-rule="evenodd" clip-rule="evenodd" d="M14.0139 24.4697L17.4949 18.6265L14.3126 0H9.88016C9.86107 0.0608266 9.8551 0.124512 9.8658 0.187114L14.0139 24.4697Z" fill="#3D5EFC"/>
<path fill-rule="evenodd" clip-rule="evenodd" d="M22.9446 24.4745L26.4266 18.6265L25.4332 12.8202L24.434 6.97666L23.2428 0H18.8104C18.7913 0.0608306 18.7853 0.124518 18.796 0.187125L22.9446 24.4745Z" fill="#4399FF"/>
<path fill-rule="evenodd" clip-rule="evenodd" d="M25.4332 12.8202L32.9036 0.275323C32.9594 0.181563 32.9789 0.0853743 32.9683 0H28.5888L24.434 6.97666L25.4332 12.8202Z" fill="#FF3C00"/>
<path fill-rule="evenodd" clip-rule="evenodd" d="M37.5197 0L19.487 30.2788L20.4862 36.1223L41.8357 0.273329C41.8911 0.180297 41.9107 0.0848763 41.9007 0H37.5197Z" fill="#FF8110"/>
<path fill-rule="evenodd" clip-rule="evenodd" d="M4.48169 48L21.9526 18.6614L20.9549 12.8179L0 48H4.48169Z" fill="#FF3C00"/>
<path fill-rule="evenodd" clip-rule="evenodd" d="M17.0037 41.9723L16.0055 36.1243L8.93247 48H13.4142L17.0037 41.9723Z" fill="#FF8110"/>
<path fill-rule="evenodd" clip-rule="evenodd" d="M22.5153 48L18.4942 24.4697L15.012 30.318L16.0055 36.1243L17.0037 41.9723L18.0335 48H22.5153Z" fill="#3D5EFC"/>
<path fill-rule="evenodd" clip-rule="evenodd" d="M31.4455 48L27.4248 24.4745L23.9438 30.318L26.9638 48H31.4455Z" fill="#4399FF"/>
</svg>
