<svg width="16" height="16" viewBox="0 0 16 16" fill="none" xmlns="http://www.w3.org/2000/svg">
<mask id="mask0_3913_3929" style="mask-type:alpha" maskUnits="userSpaceOnUse" x="0" y="0" width="16" height="16">
<path d="M0 2.56C0 1.14615 1.14615 0 2.56 0H13.44C14.8538 0 16 1.14615 16 2.56V13.44C16 14.8538 14.8538 16 13.44 16H2.56C1.14615 16 0 14.8538 0 13.44V2.56Z" fill="white"/>
</mask>
<g mask="url(#mask0_3913_3929)">
<rect width="22.5" height="18.5" transform="translate(-4 -1.5)" fill="white"/>
<path fill-rule="evenodd" clip-rule="evenodd" d="M8.01486 8.15657L9.13635 6.20882L8.11111 0H6.6831C6.67695 0.0202755 6.67503 0.041504 6.67847 0.0623714L8.01486 8.15657Z" fill="#3D5EFC"/>
<path fill-rule="evenodd" clip-rule="evenodd" d="M10.8921 8.15816L12.0139 6.20882L11.6938 4.27338L11.3719 2.32555L10.9881 0H9.56015C9.554 0.0202769 9.55208 0.0415061 9.55552 0.0623749L10.8921 8.15816Z" fill="#4399FF"/>
<path fill-rule="evenodd" clip-rule="evenodd" d="M11.6938 4.27338L14.1006 0.0917745C14.1186 0.0605209 14.1249 0.0284581 14.1214 0H12.7105L11.3719 2.32555L11.6938 4.27338Z" fill="#FF3C00"/>
<path fill-rule="evenodd" clip-rule="evenodd" d="M15.5877 0L9.77814 10.0929L10.1 12.0408L16.9783 0.0911096C16.9961 0.0600992 17.0024 0.0282921 16.9992 0H15.5877Z" fill="#FF8110"/>
<path fill-rule="evenodd" clip-rule="evenodd" d="M4.94387 16L10.5725 6.22048L10.2511 4.27264L3.5 16H4.94387Z" fill="#FF3C00"/>
<path fill-rule="evenodd" clip-rule="evenodd" d="M8.9781 13.9908L8.65649 12.0414L6.37778 16H7.82166L8.9781 13.9908Z" fill="#FF8110"/>
<path fill-rule="evenodd" clip-rule="evenodd" d="M10.7538 16L9.45828 8.15657L8.33644 10.106L8.65649 12.0414L8.9781 13.9908L9.30988 16H10.7538Z" fill="#3D5EFC"/>
<path fill-rule="evenodd" clip-rule="evenodd" d="M13.6308 16L12.3355 8.15816L11.214 10.106L12.1869 16H13.6308Z" fill="#4399FF"/>
</g>
</svg>
